<mxfile host="app.diagrams.net" modified="2023-10-03T14:34:38.564Z" agent="Mozilla/5.0 (Windows NT 10.0; Win64; x64) AppleWebKit/537.36 (KHTML, like Gecko) Chrome/117.0.0.0 Safari/537.36" etag="OSnyXkPPWH8TrKafWi_S" version="22.0.2" type="google">
  <diagram name="Page-1" id="1-44YwmcfInI1Adq0wha">
    <mxGraphModel grid="1" page="1" gridSize="10" guides="1" tooltips="1" connect="1" arrows="1" fold="1" pageScale="1" pageWidth="850" pageHeight="1100" math="0" shadow="0">
      <root>
        <mxCell id="0" />
        <mxCell id="1" parent="0" />
        <mxCell id="2EtqrbVKQwSpH6e4gQNb-11" value="" style="group" connectable="0" vertex="1" parent="1">
          <mxGeometry x="120" y="120" width="220" height="286" as="geometry" />
        </mxCell>
        <mxCell id="2EtqrbVKQwSpH6e4gQNb-12" value="entry e&lt;br&gt;" style="swimlane;fontStyle=1;align=center;verticalAlign=top;childLayout=stackLayout;horizontal=1;startSize=26;horizontalStack=0;resizeParent=1;resizeParentMax=0;resizeLast=0;collapsible=1;marginBottom=0;whiteSpace=wrap;html=1;fontSize=17;" vertex="1" parent="2EtqrbVKQwSpH6e4gQNb-11">
          <mxGeometry y="200" width="220" height="86" as="geometry" />
        </mxCell>
        <mxCell id="2EtqrbVKQwSpH6e4gQNb-13" value="+ x: double&lt;br&gt;" style="text;strokeColor=none;fillColor=none;align=left;verticalAlign=top;spacingLeft=4;spacingRight=4;overflow=hidden;rotatable=0;points=[[0,0.5],[1,0.5]];portConstraint=eastwest;whiteSpace=wrap;html=1;fontSize=17;" vertex="1" parent="2EtqrbVKQwSpH6e4gQNb-12">
          <mxGeometry y="26" width="220" height="26" as="geometry" />
        </mxCell>
        <mxCell id="2EtqrbVKQwSpH6e4gQNb-14" value="" style="line;strokeWidth=1;fillColor=none;align=left;verticalAlign=middle;spacingTop=-1;spacingLeft=3;spacingRight=3;rotatable=0;labelPosition=right;points=[];portConstraint=eastwest;strokeColor=inherit;fontSize=17;" vertex="1" parent="2EtqrbVKQwSpH6e4gQNb-12">
          <mxGeometry y="52" width="220" height="8" as="geometry" />
        </mxCell>
        <mxCell id="2EtqrbVKQwSpH6e4gQNb-15" value="+ e: struct entry*&amp;nbsp;&lt;br&gt;" style="text;strokeColor=none;fillColor=none;align=left;verticalAlign=top;spacingLeft=4;spacingRight=4;overflow=hidden;rotatable=0;points=[[0,0.5],[1,0.5]];portConstraint=eastwest;whiteSpace=wrap;html=1;fontSize=17;" vertex="1" parent="2EtqrbVKQwSpH6e4gQNb-12">
          <mxGeometry y="60" width="220" height="26" as="geometry" />
        </mxCell>
        <mxCell id="2EtqrbVKQwSpH6e4gQNb-17" value="entry *ep" style="rounded=0;whiteSpace=wrap;html=1;fontSize=19;" vertex="1" parent="2EtqrbVKQwSpH6e4gQNb-11">
          <mxGeometry x="50" width="120" height="60" as="geometry" />
        </mxCell>
        <mxCell id="2EtqrbVKQwSpH6e4gQNb-18" value="" style="endArrow=classic;html=1;rounded=0;exitX=0.5;exitY=1;exitDx=0;exitDy=0;entryX=0.5;entryY=0;entryDx=0;entryDy=0;" edge="1" parent="2EtqrbVKQwSpH6e4gQNb-11" source="2EtqrbVKQwSpH6e4gQNb-17" target="2EtqrbVKQwSpH6e4gQNb-12">
          <mxGeometry width="50" height="50" relative="1" as="geometry">
            <mxPoint x="220" y="210" as="sourcePoint" />
            <mxPoint x="270" y="160" as="targetPoint" />
          </mxGeometry>
        </mxCell>
        <mxCell id="2EtqrbVKQwSpH6e4gQNb-19" value="" style="group" connectable="0" vertex="1" parent="1">
          <mxGeometry x="450" y="120" width="280" height="286" as="geometry" />
        </mxCell>
        <mxCell id="2EtqrbVKQwSpH6e4gQNb-20" value="entry *eq" style="rounded=0;whiteSpace=wrap;html=1;fontSize=19;" vertex="1" parent="2EtqrbVKQwSpH6e4gQNb-19">
          <mxGeometry x="79.5" width="120" height="60" as="geometry" />
        </mxCell>
        <mxCell id="2EtqrbVKQwSpH6e4gQNb-25" value="" style="endArrow=classic;html=1;rounded=0;exitX=0.5;exitY=1;exitDx=0;exitDy=0;entryX=0.5;entryY=0;entryDx=0;entryDy=0;" edge="1" parent="2EtqrbVKQwSpH6e4gQNb-19" source="2EtqrbVKQwSpH6e4gQNb-20">
          <mxGeometry width="50" height="50" relative="1" as="geometry">
            <mxPoint x="79.5" y="60" as="sourcePoint" />
            <mxPoint x="139.5" y="200" as="targetPoint" />
          </mxGeometry>
        </mxCell>
        <mxCell id="2EtqrbVKQwSpH6e4gQNb-31" value="some mallocated entry space 2" style="swimlane;fontStyle=1;align=center;verticalAlign=top;childLayout=stackLayout;horizontal=1;startSize=26;horizontalStack=0;resizeParent=1;resizeParentMax=0;resizeLast=0;collapsible=1;marginBottom=0;whiteSpace=wrap;html=1;fontSize=17;" vertex="1" parent="2EtqrbVKQwSpH6e4gQNb-19">
          <mxGeometry y="200" width="280" height="86" as="geometry" />
        </mxCell>
        <mxCell id="2EtqrbVKQwSpH6e4gQNb-32" value="+ x: double&amp;nbsp;" style="text;strokeColor=none;fillColor=none;align=left;verticalAlign=top;spacingLeft=4;spacingRight=4;overflow=hidden;rotatable=0;points=[[0,0.5],[1,0.5]];portConstraint=eastwest;whiteSpace=wrap;html=1;fontSize=17;" vertex="1" parent="2EtqrbVKQwSpH6e4gQNb-31">
          <mxGeometry y="26" width="280" height="26" as="geometry" />
        </mxCell>
        <mxCell id="2EtqrbVKQwSpH6e4gQNb-33" value="" style="line;strokeWidth=1;fillColor=none;align=left;verticalAlign=middle;spacingTop=-1;spacingLeft=3;spacingRight=3;rotatable=0;labelPosition=right;points=[];portConstraint=eastwest;strokeColor=inherit;fontSize=17;" vertex="1" parent="2EtqrbVKQwSpH6e4gQNb-31">
          <mxGeometry y="52" width="280" height="8" as="geometry" />
        </mxCell>
        <mxCell id="2EtqrbVKQwSpH6e4gQNb-34" value="+ e: struct entry*&amp;nbsp;" style="text;strokeColor=none;fillColor=none;align=left;verticalAlign=top;spacingLeft=4;spacingRight=4;overflow=hidden;rotatable=0;points=[[0,0.5],[1,0.5]];portConstraint=eastwest;whiteSpace=wrap;html=1;fontSize=17;" vertex="1" parent="2EtqrbVKQwSpH6e4gQNb-31">
          <mxGeometry y="60" width="280" height="26" as="geometry" />
        </mxCell>
        <mxCell id="2EtqrbVKQwSpH6e4gQNb-26" value="some mallocated entry space 1" style="swimlane;fontStyle=1;align=center;verticalAlign=top;childLayout=stackLayout;horizontal=1;startSize=26;horizontalStack=0;resizeParent=1;resizeParentMax=0;resizeLast=0;collapsible=1;marginBottom=0;whiteSpace=wrap;html=1;fontSize=17;" vertex="1" parent="1">
          <mxGeometry x="110" y="470" width="280" height="86" as="geometry" />
        </mxCell>
        <mxCell id="2EtqrbVKQwSpH6e4gQNb-27" value="+ x: double&amp;nbsp; = 1.2&lt;br&gt;" style="text;strokeColor=none;fillColor=none;align=left;verticalAlign=top;spacingLeft=4;spacingRight=4;overflow=hidden;rotatable=0;points=[[0,0.5],[1,0.5]];portConstraint=eastwest;whiteSpace=wrap;html=1;fontSize=17;" vertex="1" parent="2EtqrbVKQwSpH6e4gQNb-26">
          <mxGeometry y="26" width="280" height="26" as="geometry" />
        </mxCell>
        <mxCell id="2EtqrbVKQwSpH6e4gQNb-28" value="" style="line;strokeWidth=1;fillColor=none;align=left;verticalAlign=middle;spacingTop=-1;spacingLeft=3;spacingRight=3;rotatable=0;labelPosition=right;points=[];portConstraint=eastwest;strokeColor=inherit;fontSize=17;" vertex="1" parent="2EtqrbVKQwSpH6e4gQNb-26">
          <mxGeometry y="52" width="280" height="8" as="geometry" />
        </mxCell>
        <mxCell id="2EtqrbVKQwSpH6e4gQNb-29" value="+ e: struct entry*&amp;nbsp; = NULL" style="text;strokeColor=none;fillColor=none;align=left;verticalAlign=top;spacingLeft=4;spacingRight=4;overflow=hidden;rotatable=0;points=[[0,0.5],[1,0.5]];portConstraint=eastwest;whiteSpace=wrap;html=1;fontSize=17;" vertex="1" parent="2EtqrbVKQwSpH6e4gQNb-26">
          <mxGeometry y="60" width="280" height="26" as="geometry" />
        </mxCell>
        <mxCell id="2EtqrbVKQwSpH6e4gQNb-35" value="this is the first memory allocated it went unused Also the values were changed in function f&lt;br&gt;It should have been freed !&lt;br&gt;" style="text;html=1;strokeColor=none;fillColor=none;align=center;verticalAlign=middle;whiteSpace=wrap;rounded=0;fontSize=17;" vertex="1" parent="1">
          <mxGeometry x="500" y="450" width="190" height="110" as="geometry" />
        </mxCell>
        <mxCell id="2EtqrbVKQwSpH6e4gQNb-36" value="" style="shape=flexArrow;endArrow=classic;html=1;rounded=0;exitX=0.015;exitY=0.595;exitDx=0;exitDy=0;exitPerimeter=0;" edge="1" parent="1" source="2EtqrbVKQwSpH6e4gQNb-35" target="2EtqrbVKQwSpH6e4gQNb-27">
          <mxGeometry width="50" height="50" relative="1" as="geometry">
            <mxPoint x="470" y="530" as="sourcePoint" />
            <mxPoint x="475" y="484" as="targetPoint" />
            <Array as="points">
              <mxPoint x="450" y="510" />
            </Array>
          </mxGeometry>
        </mxCell>
        <mxCell id="2EtqrbVKQwSpH6e4gQNb-16" value="" style="curved=1;endArrow=classic;html=1;rounded=0;entryX=0;entryY=0;entryDx=0;entryDy=0;exitX=0.682;exitY=0.5;exitDx=0;exitDy=0;exitPerimeter=0;" edge="1" parent="1" source="2EtqrbVKQwSpH6e4gQNb-15" target="2EtqrbVKQwSpH6e4gQNb-31">
          <mxGeometry width="50" height="50" relative="1" as="geometry">
            <mxPoint x="280" y="390" as="sourcePoint" />
            <mxPoint x="590" y="320" as="targetPoint" />
            <Array as="points">
              <mxPoint x="370" y="320" />
              <mxPoint x="420" y="230" />
            </Array>
          </mxGeometry>
        </mxCell>
      </root>
    </mxGraphModel>
  </diagram>
</mxfile>
